<svg width="32" height="32" viewBox="0 0 32 32" fill="none" xmlns="http://www.w3.org/2000/svg">
<path d="M19.3215 28.6844C17.9296 28.7 16.5596 28.3371 15.3575 27.6344C14.1554 26.9317 13.1663 25.9156 12.4956 24.6945C11.8947 23.6523 10.3452 20.8896 10.2671 20.7494C10.1323 20.5071 10.0992 20.2212 10.175 19.9545C10.2508 19.6877 10.4293 19.4621 10.6713 19.3271C10.9132 19.1922 11.1988 19.159 11.4652 19.2349C11.7316 19.3107 11.957 19.4895 12.0918 19.7317C12.1108 19.7659 13.7116 22.6205 14.3046 23.6488C15.7753 26.1994 18.4689 27.1737 21.5101 26.2534C21.7753 26.1732 22.0614 26.2017 22.3055 26.3328C22.5496 26.4638 22.7318 26.6866 22.8118 26.952C22.8919 27.2175 22.8634 27.504 22.7325 27.7484C22.6017 27.9928 22.3792 28.1752 22.114 28.2554C21.2092 28.5346 20.2683 28.6792 19.3215 28.6844V28.6844Z" fill="#00ABC7"/>
<path d="M19.5493 32C15.5678 32 11.8516 30.1346 9.98169 26.8919L5.70796 19.4807C5.63937 19.3618 5.59485 19.2305 5.57694 19.0944C5.55903 18.9583 5.56807 18.8199 5.60356 18.6873C5.63905 18.5546 5.70029 18.4303 5.78378 18.3214C5.86727 18.2124 5.97137 18.121 6.09015 18.0524L9.00119 16.3696C9.11997 16.3007 9.25117 16.2558 9.38728 16.2377C9.52338 16.2195 9.66173 16.2284 9.7944 16.2639C9.92707 16.2993 10.0514 16.3606 10.1604 16.4443C10.2694 16.5279 10.3608 16.6322 10.4295 16.7513C10.4982 16.8704 10.5427 17.0018 10.5606 17.1381C10.5784 17.2744 10.5693 17.4129 10.5336 17.5457C10.4979 17.6784 10.4365 17.8029 10.3527 17.9118C10.269 18.0208 10.1646 18.1121 10.0456 18.1806L8.03894 19.3405L11.7905 25.8462C13.8242 29.373 18.6595 30.8436 23.0975 29.31C26.6428 26.2289 27.7886 21.3008 25.755 17.7741L22.1638 11.5465C22.0947 11.4276 22.0497 11.2962 22.0314 11.1598C22.0132 11.0234 22.0219 10.8848 22.0573 10.7518C22.0926 10.6188 22.1538 10.4941 22.2374 10.3849C22.321 10.2757 22.4253 10.184 22.5443 10.1152C22.6633 10.0464 22.7947 10.0018 22.931 9.98394C23.0672 9.96608 23.2057 9.97533 23.3384 10.0112C23.4711 10.047 23.5954 10.1087 23.7042 10.1927C23.8131 10.2767 23.9043 10.3815 23.9726 10.5008L27.5638 16.7284C30.1237 21.1677 28.7205 27.3169 24.3 31.0317C24.2066 31.1102 24.1002 31.1717 23.9855 31.2134C22.5639 31.7325 21.0625 31.9987 19.5493 32V32Z" fill="#00ABC7"/>
<path d="M19.2353 25.2947C17.5858 25.2947 16.1876 24.1951 15.4776 22.9637L3.13894 1.5667C3.00108 1.32659 2.96399 1.04152 3.03583 0.774055C3.10767 0.506595 3.28257 0.278599 3.52213 0.140108C3.76169 0.00161613 4.04634 -0.0360554 4.31362 0.0353612C4.58089 0.106778 4.80894 0.281447 4.94772 0.521034L17.2863 21.918C17.6229 22.5014 18.5769 23.5026 19.7772 23.1148C20.0408 23.0299 20.3272 23.0533 20.5736 23.1798C20.8199 23.3064 21.006 23.5256 21.091 23.7895C21.1759 24.0533 21.1527 24.3402 21.0265 24.5869C20.9003 24.8336 20.6814 25.0201 20.4179 25.1053C20.036 25.2299 19.637 25.2938 19.2353 25.2947V25.2947Z" fill="#00ABC7"/>
<path d="M16.5632 14.253C16.3799 14.2529 16.1998 14.2046 16.0411 14.1128C15.8823 14.0211 15.7505 13.8891 15.6588 13.7301L12.1966 7.72588C12.0587 7.48577 12.0216 7.2007 12.0935 6.93324C12.1653 6.66578 12.3402 6.43778 12.5797 6.29929C12.8193 6.1608 13.104 6.12312 13.3712 6.19454C13.6385 6.26596 13.8666 6.44063 14.0053 6.68021L16.9455 11.779L18.8156 10.6979C19.0554 10.5599 19.3401 10.5228 19.6072 10.5947C19.8744 10.6666 20.1021 10.8417 20.2404 11.0816C20.3787 11.3214 20.4164 11.6064 20.345 11.874C20.2737 12.1416 20.0993 12.37 19.86 12.5089L17.0854 14.1128C16.9266 14.2046 16.7465 14.2529 16.5632 14.253V14.253Z" fill="#00ABC7"/>
</svg>
